Coordinates
version=1
nRows=8
nColumns=36
inDegrees=yes

Units are S.I. units (second, meters, Newtons, ...)
If the header above contains a line with 'inDegrees', this indicates whether rotational values are in degrees (yes) or radians (no).

endheader
time	pelvis_tilt	pelvis_list	pelvis_rotation	pelvis_tx	pelvis_ty	pelvis_tz	hip_flexion_r	hip_adduction_r	hip_rotation_r	knee_angle_r	knee_angle_r_beta	ankle_angle_r	subtalar_angle_r	mtp_angle_r	hip_flexion_l	hip_adduction_l	hip_rotation_l	knee_angle_l	knee_angle_l_beta	ankle_angle_l	subtalar_angle_l	mtp_angle_l	lumbar_extension	lumbar_bending	lumbar_rotation	arm_flex_r	arm_add_r	arm_rot_r	elbow_flex_r	pro_sup_r	arm_flex_l	arm_add_l	arm_rot_l	elbow_flex_l	pro_sup_l
      0.00000000	     -0.36637950	     -0.83946169	      0.51207299	      0.36762792	      0.93084797	     -0.05873809	      1.71178082	     -4.60793506	      1.46897509	      8.63224208	      0.15066105	      0.53448625	    -15.07065600	     -5.28413916	     -0.98262665	     -3.97878144	      0.82890655	      6.11514880	      0.10672948	      4.55540449	    -11.98060925	     -5.28413916	     -5.82283832	      0.45558930	     -2.55222574	      0.43867816	     -5.11228581	      0.40901802	     26.63722075	     79.91144461	      3.12918148	     -8.78437069	     12.49222042	     24.46129598	     71.04940057
      0.01666670	     -2.24976319	     -0.74486181	      0.44727553	      0.37031227	      0.92739955	     -0.05896221	      3.32007092	     -4.69009956	      2.17414546	      8.23335657	      0.14369918	      2.98716483	    -12.74900790	     -5.74722573	      1.09367678	     -3.58359370	      0.82454116	      5.52336964	      0.09640099	      4.93472544	    -10.11866985	     -5.74722573	     -2.72176025	      0.47256880	     -2.91415244	     -0.75951174	     -3.66446497	     -5.36306079	     27.10274445	     78.76852849	      1.95067886	     -7.11491624	      4.17048542	     24.00447043	     70.50030125
      0.03333330	     -2.68707656	     -0.01217452	      0.28793988	      0.37059473	      0.92679047	     -0.05797209	      3.32929009	     -5.57760025	      2.11611157	      7.35192362	      0.12831527	      3.31324504	    -12.19972642	     -5.80255827	      1.23939968	     -2.91113500	      0.15353976	      5.01496312	      0.08752762	      4.38595754	     -9.60911660	     -5.80255827	     -2.17268394	     -0.56033697	     -2.95186704	     -0.77290514	     -3.23551327	     -6.19523333	     27.11971643	     78.28906769	      1.67827018	     -7.50085723	      3.42410180	     23.65423270	     70.36660449
      0.05000000	     -2.23360634	      0.37028757	      0.31802283	      0.37079307	      0.92774529	     -0.05774918	      2.62299906	     -6.11924103	      2.18160404	      6.85595518	      0.11965899	      3.99865481	    -11.51159478	     -5.93672254	      0.12628811	     -2.51433691	     -0.04451354	      4.03251586	      0.07038068	      4.00097964	     -9.50708260	     -5.93672254	     -2.87874945	     -1.13029697	     -2.65954271	     -0.52381870	     -3.01201806	     -6.57332748	     27.28517086	     77.56770442	      1.75872487	     -7.76103507	      3.09230203	     23.54587342	     70.07703986
      0.06666670	     -1.61683099	      0.44015124	      0.35870818	      0.37465462	      0.93102522	     -0.05337329	      1.45572563	     -6.02580051	      2.08885073	      6.10952759	      0.10663137	      4.22796113	    -11.11314311	     -5.96995135	     -1.14309766	     -2.56809711	     -0.21588818	      3.08112509	      0.05377578	      3.74841237	     -9.20568163	     -5.96995135	     -3.63845483	     -1.30610070	     -2.36879422	     -0.27455975	     -2.86025489	     -6.57318027	     27.35642900	     77.69400387	      1.92074511	     -7.92846936	      3.20454211	     23.32416044	     70.31293150
      0.08333330	     -1.17074296	      0.42807182	      0.35901595	      0.37013477	      0.92862149	     -0.05788724	      0.92486425	     -5.97972484	      1.98025426	      5.95039135	      0.10385392	      4.63382212	    -11.06663581	     -6.00252911	     -1.84141963	     -2.48021185	     -0.35960313	      2.66223110	      0.04646470	      3.93167817	     -9.13918362	     -6.00252911	     -4.49151668	     -1.25942668	     -1.98888715	      0.30107688	     -3.11965194	     -6.21808626	     27.40588196	     77.81077924	      2.52284694	     -7.83326198	      3.43153599	     23.11756452	     70.49227143
      0.10000000	     -1.12032223	      0.33507088	      0.55158398	      0.37393975	      0.92863356	     -0.05346333	      0.65284448	     -5.79984788	      1.88246364	      5.61883891	      0.09806724	      4.94351435	    -11.20459828	     -6.00813241	     -2.03990327	     -2.65015097	     -0.43959327	      2.45821157	      0.04290389	      4.02170083	     -9.17695245	     -6.00813241	     -4.52647519	     -1.22424352	     -1.87786920	      0.47288438	     -3.05524443	     -6.08590268	     27.37253316	     77.83240430	      2.72785890	     -7.86856993	      3.45404173	     23.07689555	     70.51078721
      0.11666670	     -0.34643695	      0.20219850	      0.66033969	      0.37369182	      0.93521658	     -0.05387058	     -0.56995031	     -5.59735393	      1.55306768	      4.98656552	      0.08703199	      4.84010843	    -10.69867081	     -6.12314099	     -3.14481931	     -2.84940878	     -0.52977359	      2.07468218	      0.03621003	      3.98280640	     -8.58165089	     -6.12314099	     -5.40870632	     -1.13310332	     -1.71681670	      0.90972954	     -3.36516581	     -4.15961693	     26.76989368	     77.92877661	      3.38546591	     -7.78356497	      4.11673268	     22.20975900	     70.78122501
